<svg id="Layer_1" data-name="Layer 1" xmlns="http://www.w3.org/2000/svg" viewBox="0 0 80 80"><defs><style>.cls-1{fill:#fff;}</style></defs><path class="cls-1" d="M51.55,9.74c-7,0-20.27,1.45-20.27,7v1.15h-.46a74.73,74.73,0,0,0-13,1.38c-3.9.84-8.55,2.5-8.55,5.58V38.33c0,2.72,4,4.34,7.43,5.22l1.44.38-1.39.53c-3.17,1.21-4.77,2.78-4.77,4.68V62.49c0,5.64,13.39,7.13,20.48,7.13s20.47-1.48,20.47-7.09V50.71l.46,0c9.2-.36,18.47-2.66,18.47-7v-27C71.82,11.19,58.56,9.74,51.55,9.74ZM12.63,24.46C14.29,22.9,21.22,21.14,30.8,21h.48v7.73H30.8c-9.56-.19-16.49-1.95-18.16-3.5l-.38-.35ZM12.45,38.4l-.12-.13V28.62l.67.29c4.92,2.18,13.28,2.73,17.82,2.86h.46v10.4H30.8C20.79,42,13.71,39.84,12.45,38.4ZM49.79,53.88v8.66l0,.1c-.64,1.31-6.56,3.88-17.32,3.88S15.73,64,15.09,62.64l-.05-.1v-9.4l.67.3c4.37,2,11.5,2.66,16.71,2.66s12.33-.7,16.7-2.66l.67-.3Zm-.16-4.44C48.71,50.6,43.29,53,32.42,53s-16.3-2.4-17.22-3.56l-.23-.3.23-.29c.92-1.16,6.34-3.56,17.22-3.56s16.29,2.4,17.21,3.56l.23.29ZM68.72,34.83v8.89l-.09.12c-1,1.43-7.09,3.53-15.86,3.74H52.5l-.14-.22c-.67-1.07-3.93-4.59-17.52-5.13l-.45,0v-8l.66.29c4.53,2,11.49,2.66,16.5,2.66,4.84,0,12.06-.72,16.49-2.78l.68-.31Zm0-13.4v8.78l-.09.13c-.93,1.3-6.9,3.73-17.08,3.73-9,0-15.2-2-17-3.26l-.19-.15v-10l.67.3c4.32,2,11.35,2.66,16.49,2.66S63.72,23,68.05,21l.67-.3ZM68.57,17c-1.09,1.5-7.61,3.57-17,3.57s-15.92-2.07-17-3.57l-.2-.29.2-.28c1.09-1.5,7.62-3.57,17-3.57s15.93,2.07,17,3.57l.21.28Z"/></svg>