<svg id="Layer_1" data-name="Layer 1" xmlns="http://www.w3.org/2000/svg" viewBox="0 0 80 80"><defs><style>.cls-1,.cls-2{fill:none;stroke:#fff;stroke-linecap:round;stroke-width:3px;}.cls-1{stroke-linejoin:round;}</style></defs><path class="cls-1" d="M53.49,26.66A4.42,4.42,0,1,1,54,33.32"/><polyline class="cls-1" points="36.66 25.02 14.56 47.11 39.28 71.83 69.32 41.79 69.07 26.86 59.54 17.32 44.6 17.07 39.82 21.84"/><path class="cls-1" d="M34.18,46.32a4.27,4.27,0,0,0,6,6c1.54-1.54.61-3.83-.08-6s-1.63-4.41-.08-6a4.27,4.27,0,0,1,6,6"/><line class="cls-1" x1="45.86" y1="40.63" x2="47.51" y2="38.98"/><line class="cls-1" x1="32.71" y1="53.78" x2="34.36" y2="52.13"/><path class="cls-2" d="M55.62,29.76c-3.32.84-9.84.62-18.12-4.42s-13.67-11.31-12-14c1.5-2.46,8.26-1.15,15.69,2.87"/></svg>