<svg id="Layer_1" data-name="Layer 1" xmlns="http://www.w3.org/2000/svg" viewBox="0 0 80 80"><defs><style>.cls-1{fill:#fff;}</style></defs><path id="Path_117" data-name="Path 117" class="cls-1" d="M69.11,44a5.19,5.19,0,0,0-7.33,0h0l-7.34,7.34H47.11a6.21,6.21,0,0,0,.32-1.76,5.38,5.38,0,0,0-5.38-5.36H21.57l-5.38,5.38L7.29,58.5,20.54,71.82,28.43,64H57.09l12-12.67a5.06,5.06,0,0,0,1.52-3.69A5.26,5.26,0,0,0,69.11,44ZM12.35,58.52l4-3.94,8.09,8.24-3.83,3.94Zm54.2-9.78-11,11.56H27.09l-8.26-8.23,4.25-4.23H42a1.79,1.79,0,0,1,1.79,1.78,1.76,1.76,0,0,1-1.67,1.76h-5.5v3.55H55.81l8.49-8.46a1.57,1.57,0,0,1,2.2,0h0A1.44,1.44,0,0,1,67,47.59a1.6,1.6,0,0,1-.46,1.2Z"/><path id="Path_118" data-name="Path 118" class="cls-1" d="M42,8.48A17.12,17.12,0,1,0,59.12,25.59,17.11,17.11,0,0,0,42,8.48Zm0,30.58A13.59,13.59,0,1,1,55.6,25.47v.12h0A13.61,13.61,0,0,1,42,39.06Z"/><path id="Path_119" data-name="Path 119" class="cls-1" d="M43.71,15.27H40.32v2A5.08,5.08,0,0,0,42,27.06a1.7,1.7,0,0,1,1.71,1.71h0A1.69,1.69,0,0,1,42,30.46H36.92v3.39h3.4v1.72h3.39V33.66A5.08,5.08,0,0,0,42,23.76a1.69,1.69,0,0,1-1.68-1.69h0A1.73,1.73,0,0,1,42,20.36h5.11V17h-3.4Z"/></svg>