<?xml version="1.0" encoding="utf-8"?>
<!-- Generator: Adobe Illustrator 25.3.1, SVG Export Plug-In . SVG Version: 6.00 Build 0)  -->
<svg version="1.1" id="Layer_1" xmlns="http://www.w3.org/2000/svg" xmlns:xlink="http://www.w3.org/1999/xlink" x="0px" y="0px"
	 viewBox="0 0 98.5 80" style="enable-background:new 0 0 98.5 80;" xml:space="preserve">
<style type="text/css">
	.st0{fill:none;stroke:#FF8300;stroke-width:2;stroke-miterlimit:10;}
</style>
<g id="Layer_2_1_">
	<g id="Networking_Operating_Status">
		<path class="st0" d="M48.7,52.2c-4.5,0-8-4-8.8-10c-0.3-2.9,0.4-5.5,2-7.4c1.6-1.8,3.9-2.8,6.7-2.8c2.8-0.1,5.1,0.9,6.7,2.7
			c1.7,1.9,2.4,4.5,2.1,7.5C56.8,48.2,53.3,52.2,48.7,52.2z M48.9,33.6h-0.1c-2.4,0-4.3,0.8-5.6,2.3c-1.3,1.5-1.9,3.7-1.6,6.2
			c0.5,4.3,2.9,8.6,7.2,8.6s6.7-4.3,7.2-8.6c0.3-2.5-0.3-4.8-1.7-6.3C53,34.3,51.1,33.6,48.9,33.6z"/>
		<path class="st0" d="M66.6,70.8H54.1c-0.4,0-0.8-0.3-0.8-0.8s0.3-0.8,0.8-0.8l0,0h11.7v-0.5c0-8.4,0-12.3-10.2-13.9
			c-2,1.4-4.4,2.2-6.9,2.2c-2.4,0-4.8-0.8-6.9-2.2c-10.3,1.6-10.2,5.5-10.2,13.9v0.5h11.9c0.4,0,0.8,0.3,0.8,0.8s-0.3,0.8-0.8,0.8
			H30.9c-0.4,0-0.8-0.3-0.8-0.8c0,0,0,0,0,0v-1.3c0-8.5,0-13.7,11.8-15.5c0.2,0,0.4,0,0.6,0.1c1.9,1.4,4,2.1,6.2,2.1
			s4.4-0.7,6.2-2.1c0.2-0.1,0.4-0.2,0.6-0.1c11.8,1.8,11.8,7,11.8,15.5V70C67.3,70.4,67,70.8,66.6,70.8
			C66.6,70.8,66.6,70.8,66.6,70.8z"/>
		<path class="st0" d="M22.8,51.8c-4.5,0-8-4-8.8-10c-0.3-2.9,0.4-5.5,2-7.4c1.6-1.8,3.9-2.8,6.7-2.8c2.8,0,5.1,0.9,6.7,2.7
			c1.7,1.9,2.4,4.5,2.1,7.5C30.8,47.8,27.3,51.8,22.8,51.8z M22.9,33.2h-0.1c-2.4,0-4.3,0.8-5.6,2.3c-1.3,1.5-1.9,3.7-1.6,6.2
			c0.5,4.3,2.9,8.6,7.2,8.6s6.7-4.3,7.2-8.6c0.3-2.5-0.3-4.8-1.7-6.3C27.1,33.9,25.2,33.2,22.9,33.2L22.9,33.2z"/>
		<path class="st0" d="M36.2,32.2c-4.5,0-8-4-8.8-10c-0.3-2.9,0.4-5.5,2-7.4C31,13,33.4,12,36.2,12c2.8,0,5.1,0.9,6.7,2.7
			c1.7,1.9,2.4,4.5,2.1,7.5C44.2,28.1,40.7,32.2,36.2,32.2z M36.3,13.5h-0.1c-2.4,0-4.3,0.8-5.6,2.3c-1.3,1.5-1.9,3.7-1.6,6.2
			c0.5,4.3,2.9,8.6,7.2,8.6s6.7-4.3,7.2-8.6c0.3-2.5-0.3-4.8-1.7-6.3C40.5,14.3,38.6,13.5,36.3,13.5L36.3,13.5z"/>
		<path class="st0" d="M62.1,32.2c-4.5,0-8-4-8.8-10c-0.3-2.9,0.4-5.5,2-7.4C57,13,59.3,12,62.1,12c2.8,0,5.1,0.9,6.7,2.7
			c1.7,1.9,2.4,4.5,2.1,7.5C70.2,28.1,66.6,32.2,62.1,32.2z M62.3,13.5h-0.1c-2.4,0-4.3,0.8-5.6,2.3c-1.3,1.5-1.9,3.7-1.6,6.2
			c0.5,4.3,2.9,8.6,7.2,8.6s6.7-4.3,7.2-8.6c0.3-2.5-0.3-4.8-1.7-6.3C66.4,14.3,64.5,13.5,62.3,13.5L62.3,13.5z"/>
		<path class="st0" d="M17.6,70.4H5c-0.4,0-0.8-0.3-0.8-0.8c0,0,0,0,0,0v-1.3c0-8.5,0-13.7,11.8-15.5c0.2,0,0.4,0,0.6,0.1
			c1.9,1.4,4,2.1,6.2,2.1s4.4-0.7,6.2-2.1c0.3-0.2,0.8-0.2,1.1,0.2c0.2,0.3,0.2,0.8-0.2,1.1c-2.1,1.5-4.6,2.4-7.1,2.4
			c-2.4,0-4.8-0.8-6.9-2.2C5.7,56.1,5.7,60,5.7,68.4v0.5h11.9c0.4,0,0.8,0.4,0.7,0.8C18.3,70.1,18,70.4,17.6,70.4L17.6,70.4z"/>
		<path class="st0" d="M75.7,52.7c-4.5,0-8-4-8.8-10c-0.3-2.9,0.4-5.5,2-7.4c1.6-1.8,3.9-2.8,6.7-2.8c2.8-0.1,5.1,0.9,6.7,2.7
			c1.7,1.9,2.4,4.5,2.1,7.5C83.7,48.7,80.2,52.7,75.7,52.7z M75.8,34.1h-0.1c-2.4,0-4.3,0.8-5.6,2.3c-1.3,1.5-1.9,3.7-1.6,6.2
			c0.5,4.3,2.9,8.6,7.2,8.6c4.3,0,6.7-4.3,7.2-8.6c0.3-2.5-0.3-4.8-1.7-6.3C80,34.8,78.1,34.1,75.8,34.1z"/>
		<path class="st0" d="M93.5,71.3H81c-0.4,0-0.8-0.3-0.8-0.8c0-0.4,0.3-0.8,0.8-0.8c0,0,0,0,0,0h11.7v-0.5c0-8.4,0-12.3-10.2-13.9
			c-2,1.4-4.4,2.2-6.9,2.2c-2.5,0-5-0.8-7.1-2.4c-0.3-0.2-0.4-0.7-0.2-1.1c0.2-0.3,0.7-0.4,1.1-0.2c1.9,1.4,4,2.1,6.2,2.1
			c2.2,0,4.4-0.7,6.2-2.1c0.2-0.1,0.4-0.2,0.6-0.1c11.8,1.8,11.8,7,11.8,15.5v1.3C94.3,71,94,71.3,93.5,71.3
			C93.5,71.3,93.5,71.3,93.5,71.3z"/>
	</g>
</g>
</svg>
