<svg id="Layer_1" data-name="Layer 1" xmlns="http://www.w3.org/2000/svg" xmlns:xlink="http://www.w3.org/1999/xlink" viewBox="0 0 40.93 40.74"><defs><style>.cls-1{fill:url(#linear-gradient);}.cls-2{fill:none;}.cls-3{fill:#771e72;}.cls-4{fill:#fff;}.cls-5{fill:#c6c6c6;}.cls-6{fill:#ff8300;}</style><linearGradient id="linear-gradient" x1="7.71" y1="35.71" x2="33.64" y2="4.53" gradientUnits="userSpaceOnUse"><stop offset="0" stop-color="#5c0f8b"/><stop offset="0.41" stop-color="#aa4748"/><stop offset="0.76" stop-color="#e77214"/><stop offset="0.93" stop-color="#ff8300"/></linearGradient></defs><circle class="cls-1" cx="20.47" cy="20.37" r="19.23"/><path id="Path" class="cls-2" d="M20.73,9q-3.8,0-7.58.38H13l-.16,0-.16,0-.16.06-.31.14-.28.16a1.79,1.79,0,0,0-.28.2l-.25.21-.23.23-.22.26a3.16,3.16,0,0,0-.2.27c-.07.09-.12.18-.18.27s-.11.2-.16.3-.1.2-.14.3l-.12.31a3,3,0,0,0-.09.32,3,3,0,0,0-.08.32c0,.12,0,.22-.05.33a65.8,65.8,0,0,0,0,14,1.75,1.75,0,0,0,.05.33c0,.11,0,.22.08.33l.09.32.12.31c0,.1.09.2.14.3a4.94,4.94,0,0,0,.34.57l.2.27c.07.08.14.17.22.25l.23.24.25.21.28.19a2.09,2.09,0,0,0,.28.17l.31.14.16.05.16.05.16,0h.16a75.3,75.3,0,0,0,15.16,0h.16l.16,0,.16-.05.16-.05.3-.14a2.69,2.69,0,0,0,.29-.16,1.89,1.89,0,0,0,.27-.2,2.65,2.65,0,0,0,.26-.21l.23-.24c.08-.08.15-.17.22-.25l.2-.27L30.9,29a2.69,2.69,0,0,0,.16-.29c.05-.1.1-.2.14-.3l.12-.31.09-.32c0-.11.06-.22.08-.32s0-.23.05-.34a65.8,65.8,0,0,0,0-14,1.88,1.88,0,0,0-.05-.33c0-.1,0-.21-.08-.32s-.06-.22-.09-.32l-.12-.31-.14-.3c0-.1-.1-.2-.16-.3l-.18-.27a3.16,3.16,0,0,0-.2-.27l-.22-.26-.23-.23a2.65,2.65,0,0,0-.26-.21,1.89,1.89,0,0,0-.27-.2,2.69,2.69,0,0,0-.29-.16L29,9.47l-.16-.06-.16,0-.16,0h-.16Q24.53,9,20.73,9"/><g id="Group"><path id="Shape-Copy" class="cls-3" d="M20.46,9.52c-2.47,0-5,.13-7.47.37h-.16l-.16,0-.16,0-.15,0-.3.13a2.61,2.61,0,0,0-.28.17,1.31,1.31,0,0,0-.27.19,2.43,2.43,0,0,0-.25.2l-.24.23-.21.25c-.07.08-.13.17-.2.26s-.12.18-.17.27-.11.19-.16.28l-.14.29L10,12.6l-.09.31c0,.1,0,.21-.07.31s0,.22,0,.32a62.2,62.2,0,0,0,0,13.64,1.64,1.64,0,0,0,0,.32c0,.1,0,.21.07.31l.09.32.12.3.14.29.16.29.17.27c.07.08.13.17.2.26l.21.24.24.23.25.21a1.85,1.85,0,0,0,.27.19l.28.16.3.13.15.05.16.05a.29.29,0,0,1,.16,0H13a76.21,76.21,0,0,0,15,0h.16l.16,0,.16-.05.16-.05.29-.13.28-.16.28-.19.24-.21.24-.23.21-.24a2.56,2.56,0,0,1,.2-.26c.06-.09.12-.19.18-.27l.15-.29c.05-.1.1-.19.14-.29l.12-.31.09-.31a2.82,2.82,0,0,0,.07-.31c0-.11,0-.21.05-.32a61,61,0,0,0,0-13.64,1.92,1.92,0,0,0-.05-.32,2.82,2.82,0,0,0-.07-.31l-.09-.31-.12-.31L30.65,12c0-.09-.1-.19-.15-.28l-.18-.27c-.07-.09-.13-.18-.2-.26l-.21-.25-.24-.23-.24-.2-.27-.19a3.27,3.27,0,0,0-.59-.3l-.15,0-.16-.05-.16,0h-.16a74.48,74.48,0,0,0-7.48-.37m0,22.13A72.63,72.63,0,0,1,13,31.27l-.19,0-.19,0-.18-.05-.18-.06a2.07,2.07,0,0,1-.34-.15,3.3,3.3,0,0,1-.32-.18,3.21,3.21,0,0,1-.3-.21L11,30.33c-.09-.09-.17-.16-.25-.25l-.23-.27a1.86,1.86,0,0,1-.21-.28l-.2-.3a3.07,3.07,0,0,1-.17-.31l-.15-.32c0-.1-.09-.21-.13-.33s-.07-.22-.1-.33-.06-.23-.08-.34,0-.24,0-.36a61.89,61.89,0,0,1,0-13.74,2.11,2.11,0,0,1,0-.35c0-.12.05-.23.08-.35s.06-.22.1-.33.09-.23.13-.33l.15-.32a3.07,3.07,0,0,1,.17-.31l.2-.3c.07-.09.13-.19.21-.28l.23-.27.25-.25.28-.23.3-.2a3.37,3.37,0,0,1,.32-.19l.34-.15.18-.06.18-.05.19,0,.19,0a75.49,75.49,0,0,1,15,0l.19,0,.19,0,.18.05.18.06.34.15a3.37,3.37,0,0,1,.32.19l.3.2.28.23c.08.09.17.17.25.25l.24.27.21.28.19.3a3.07,3.07,0,0,1,.17.31l.15.32.13.33a3.18,3.18,0,0,1,.1.33c0,.12.06.23.08.35s0,.23.05.35a61.89,61.89,0,0,1,0,13.74,2.23,2.23,0,0,1-.05.36,3.38,3.38,0,0,1-.08.34,3.18,3.18,0,0,1-.1.33,3.24,3.24,0,0,1-.13.33,3.13,3.13,0,0,1-.15.32,3.07,3.07,0,0,1-.17.31l-.19.3-.21.28-.24.27c-.08.09-.17.17-.25.25l-.28.23c-.1.07-.2.15-.3.21a3.3,3.3,0,0,1-.32.18,2.07,2.07,0,0,1-.34.15l-.18.06-.18.05-.19,0-.19,0a72.69,72.69,0,0,1-7.52.38"/><path class="cls-4" d="M20.46,32.12h0c-2.51,0-5.05-.13-7.55-.38l-.43-.07-.43-.13a2.76,2.76,0,0,1-.39-.18,3.13,3.13,0,0,1-.36-.19L11,31l-.06,0a3.88,3.88,0,0,1-.31-.26c-.1-.1-.2-.18-.29-.28l-.24-.28a2.8,2.8,0,0,1-.24-.33l-.07-.1-.14-.21c-.06-.1-.12-.22-.18-.33s-.12-.24-.17-.36-.09-.23-.14-.35-.08-.25-.11-.37A2.82,2.82,0,0,1,9,27.75l0-.05c0-.12,0-.25-.05-.38a62.27,62.27,0,0,1,0-13.85,1.37,1.37,0,0,1,0-.31l0-.09a2.34,2.34,0,0,1,.09-.38c0-.13.07-.25.11-.38s.09-.24.14-.35.1-.23.16-.35.13-.23.19-.34L9.89,11l.24-.32c.08-.09.16-.19.25-.28l.19-.19.11-.1L11,9.82l.36-.24a3.82,3.82,0,0,1,.36-.21,3.34,3.34,0,0,1,.38-.17l.39-.12L12.89,9A76.49,76.49,0,0,1,28,9l.43.07.42.13a2.54,2.54,0,0,1,.41.18l.36.21a2.85,2.85,0,0,1,.33.23l.28.24a4,4,0,0,1,.29.28,3.65,3.65,0,0,1,.27.3l.22.3.21.32.19.34c.06.12.12.24.17.36a3.62,3.62,0,0,1,.13.35,2.4,2.4,0,0,1,.12.38,2.62,2.62,0,0,1,.09.38c0,.14,0,.25.06.37a62.7,62.7,0,0,1,0,13.83,2.06,2.06,0,0,1-.05.38v0l-.09.37a2.78,2.78,0,0,1-.12.38l0,0a2.49,2.49,0,0,1-.11.29,4,4,0,0,1-.17.36,3.24,3.24,0,0,1-.17.32l-.21.32c-.08.12-.16.22-.24.32l-.27.31a3.69,3.69,0,0,1-.28.27l-.29.24a3.43,3.43,0,0,1-.33.24l-.37.21-.4.17-.39.12-.44.08C25.52,32,23,32.12,20.46,32.12Zm-7.55-1.76H13a73.7,73.7,0,0,0,14.85,0h.26l.28-.09.24-.11L28.9,30l.24-.17.22-.18.21-.21c.06-.07.13-.14.18-.21l0-.05.15-.2.16-.24.18-.33.07-.18a2,2,0,0,0,.11-.28,1.43,1.43,0,0,0,.09-.27c0-.1.05-.19.07-.29s0-.19,0-.29a61.21,61.21,0,0,0,0-13.53v-.05a.44.44,0,0,0,0-.14v-.09a1.76,1.76,0,0,0-.07-.27c0-.11-.06-.2-.09-.29s-.06-.18-.1-.27a2.39,2.39,0,0,0-.13-.28l-.11-.2,0-.05a1.43,1.43,0,0,0-.15-.22,1.66,1.66,0,0,0-.18-.24l-.19-.23L29.35,11a1.92,1.92,0,0,0-.21-.16l-.25-.19a3.73,3.73,0,0,0-.49-.24l-.13,0-.09,0-.13,0h-.16c-2.45-.24-4.95-.36-7.43-.36h0a73.44,73.44,0,0,0-7.42.37l-.27,0-.1,0-.17.05-.23.11-.24.14a1.88,1.88,0,0,0-.23.16l-.23.18-.21.21-.19.23a1.84,1.84,0,0,0-.17.22l-.16.24-.14.26-.13.26c0,.1-.07.19-.1.28a2.46,2.46,0,0,0-.09.29,2.68,2.68,0,0,0-.07.27c0,.09,0,.19,0,.28a61.3,61.3,0,0,0,0,13.54v.05a1.41,1.41,0,0,0,0,.18v.05a2.68,2.68,0,0,0,.07.27v.05a2.41,2.41,0,0,0,.08.25,1.09,1.09,0,0,0,.1.25,1.46,1.46,0,0,0,.13.28,2,2,0,0,0,.13.25L11,29l.17.22c.06.07.12.15.19.22l.2.19a2.05,2.05,0,0,0,.23.2L12,30l.25.14.26.12.21.06Z"/><g id="Group-31-Copy"><path id="Path-2" data-name="Path" class="cls-5" d="M13,23a.49.49,0,0,1,.5.41V25.1c0,.17-.22.31-.5.31h-.44c-.28,0-.5-.14-.5-.31V23.29c0-.17.22-.32.5-.32Z"/><path class="cls-6" d="M13,16.61h-.44c-.28,0-.5.15-.5.32v3.52c0,.18.22.32.5.32H13c.28,0,.5-.14.5-.32V16.93C13.47,16.76,13.25,16.61,13,16.61Z"/></g></g></svg>