<svg id="Layer_1" data-name="Layer 1" xmlns="http://www.w3.org/2000/svg" viewBox="0 0 40.93 40.74"><defs><style>.cls-1{fill:#5c0f8b;}.cls-2{fill:none;stroke:#ff8300;stroke-miterlimit:10;}</style></defs><g id="Layer_2" data-name="Layer 2"><g id="AI_Analytics" data-name="AI Analytics"><path class="cls-1" d="M35.85,15.5H26.58a2.25,2.25,0,0,1-2.25-2.25V5.44a.52.52,0,0,1,1,0v7.81a1.22,1.22,0,0,0,1.22,1.22h9.27a.52.52,0,1,1,0,1Z"/><path class="cls-1" d="M34.83,36.27H6.1a1.55,1.55,0,0,1-1.54-1.54V6A1.55,1.55,0,0,1,6.1,4.47h19a.51.51,0,0,1,.36.15c1.7,1.69,4.35,3.89,6.92,6,1.29,1.07,2.63,2.17,3.83,3.2a.52.52,0,0,1,.18.39V34.73A1.55,1.55,0,0,1,34.83,36.27ZM6.1,5.5A.51.51,0,0,0,5.59,6V34.73a.51.51,0,0,0,.51.52H34.83a.51.51,0,0,0,.51-.52V14.45c-1.15-1-2.41-2-3.63-3C29.2,9.35,26.6,7.2,24.87,5.5Z"/></g></g><line class="cls-2" x1="17.05" y1="5.5" x2="17.05" y2="23.95"/><line class="cls-2" x1="14.16" y1="7.24" x2="16.95" y2="7.24"/><line class="cls-2" x1="14.16" y1="9.84" x2="16.95" y2="9.84"/><line class="cls-2" x1="14.16" y1="12.45" x2="16.95" y2="12.45"/><line class="cls-2" x1="14.16" y1="15.05" x2="16.95" y2="15.05"/><line class="cls-2" x1="14.16" y1="17.66" x2="16.95" y2="17.66"/><line class="cls-2" x1="14.16" y1="20.26" x2="16.95" y2="20.26"/><line class="cls-2" x1="17.05" y1="8.54" x2="19.84" y2="8.54"/><line class="cls-2" x1="17.05" y1="11.15" x2="19.84" y2="11.15"/><line class="cls-2" x1="17.05" y1="13.75" x2="19.84" y2="13.75"/><line class="cls-2" x1="17.05" y1="16.35" x2="19.84" y2="16.35"/><line class="cls-2" x1="17.05" y1="18.96" x2="19.84" y2="18.96"/><line class="cls-2" x1="17.05" y1="21.56" x2="19.84" y2="21.56"/><polygon class="cls-2" points="17.05 23.44 13.25 27.67 20.85 27.67 17.05 23.44"/></svg>