<svg id="Layer_1" data-name="Layer 1" xmlns="http://www.w3.org/2000/svg" viewBox="0 0 80 80"><defs><style>.cls-1{fill:#ff8300;}</style></defs><path class="cls-1" d="M73.39,16.11a2,2,0,0,0-1.54-.74H19.34L17.87,9A2,2,0,0,0,16,7.48H7.4a2,2,0,0,0,0,3.95h7l10,43.19a2,2,0,0,0,1.92,1.53H65.8a2,2,0,0,0,0-3.95h-38l-1.52-6.57H65.93a2,2,0,0,0,1.93-1.54l5.91-26.31A2,2,0,0,0,73.39,16.11Zm-9,25.57H25.41L20.25,19.32H69.38Z"/><path class="cls-1" d="M34.36,58.78A7.24,7.24,0,1,0,41.6,66,7.23,7.23,0,0,0,34.36,58.78Zm0,10.52A3.29,3.29,0,1,1,37.65,66,3.28,3.28,0,0,1,34.36,69.3Z"/><path class="cls-1" d="M58,58.78A7.24,7.24,0,1,0,65.27,66,7.24,7.24,0,0,0,58,58.78ZM58,69.3A3.29,3.29,0,1,1,61.33,66,3.29,3.29,0,0,1,58,69.3Z"/></svg>