<svg id="Layer_1" data-name="Layer 1" xmlns="http://www.w3.org/2000/svg" xmlns:xlink="http://www.w3.org/1999/xlink" viewBox="0 0 40.93 40.74"><defs><style>.cls-1{fill:url(#linear-gradient);}.cls-2,.cls-3{fill:none;stroke-linecap:round;stroke-width:1.1px;}.cls-2{stroke:#fff;stroke-linejoin:round;}.cls-3{stroke:#c6c6c6;}</style><linearGradient id="linear-gradient" x1="7.71" y1="35.71" x2="33.64" y2="4.53" gradientUnits="userSpaceOnUse"><stop offset="0" stop-color="#5c0f8b"/><stop offset="0.41" stop-color="#aa4748"/><stop offset="0.76" stop-color="#e77214"/><stop offset="0.93" stop-color="#ff8300"/></linearGradient></defs><circle class="cls-1" cx="20.47" cy="20.37" r="19.23"/><polyline class="cls-2" points="11.34 20.91 11.34 9.24 28.23 9.24 28.23 12.09"/><path class="cls-2" d="M14.77,31.45,14.59,30a1.31,1.31,0,0,0-1.37-1.23H10A1.31,1.31,0,0,0,8.59,30l-.18,1.46"/><path class="cls-2" d="M10.38,24.05a1.59,1.59,0,1,0,2.24-.19A1.59,1.59,0,0,0,10.38,24.05Z"/><path class="cls-2" d="M21.12,31.45,20.94,30a1.31,1.31,0,0,0-1.36-1.23H16.31A1.31,1.31,0,0,0,14.94,30l-.17,1.46"/><path class="cls-2" d="M16.73,24.05A1.59,1.59,0,1,0,19,23.86,1.59,1.59,0,0,0,16.73,24.05Z"/><path class="cls-2" d="M27.47,31.45,27.29,30a1.31,1.31,0,0,0-1.36-1.23H22.66A1.3,1.3,0,0,0,21.3,30l-.18,1.46"/><path class="cls-2" d="M23.08,24.05a1.59,1.59,0,1,0,2.24-.19A1.6,1.6,0,0,0,23.08,24.05Z"/><path class="cls-3" d="M32.61,30.48l.15-4.66c.59-.21,1.23-.7,1.17-1.32l-.42-4.76a1.27,1.27,0,0,0-1.24-1.12H29.45a1.27,1.27,0,0,0-1.24,1.12l-.42,4.13"/><path class="cls-3" d="M32.53,14.78a1.68,1.68,0,1,1-1.67-1.67A1.68,1.68,0,0,1,32.53,14.78Z"/></svg>