<svg id="Layer_1" data-name="Layer 1" xmlns="http://www.w3.org/2000/svg" viewBox="0 0 80 80"><defs><style>.cls-1{fill:#646569;}</style></defs><path id="icons_globe" data-name="icons globe" class="cls-1" d="M39.67,77.82A37.48,37.48,0,1,1,77.14,40.34h0A37.48,37.48,0,0,1,39.67,77.82Zm0-4.78c4.78,0,8.06-6.24,9.52-17.54h-19C31.6,66.8,34.88,73,39.67,73ZM54,55.5a42.56,42.56,0,0,1-4.52,16,32.9,32.9,0,0,0,19.14-16Zm-43.32,0a32.89,32.89,0,0,0,19.13,16,42.55,42.55,0,0,1-4.51-16Zm43.77-4.79h16.2a32.68,32.68,0,0,0,0-20.73H54.47q.35,4.79.35,10.37c0,3.72-.12,7.18-.35,10.36Zm-24.8,0h20c.25-3.15.37-6.61.37-10.36s-.12-7.22-.37-10.38h-20q-.37,4.74-.38,10.38c0,3.75.13,7.21.38,10.36Zm-21,0h16.2q-.34-4.78-.34-10.36T24.86,30H8.66a32.68,32.68,0,0,0,0,20.73ZM54,25.2H68.63a32.89,32.89,0,0,0-19.13-16A42.75,42.75,0,0,1,54,25.2Zm-23.87,0h19C47.73,13.9,44.45,7.66,39.67,7.66S31.6,13.89,30.15,25.2Zm-19.45,0H25.31a42.56,42.56,0,0,1,4.52-16A32.86,32.86,0,0,0,10.7,25.2Z"/></svg>