<svg id="Layer_1" data-name="Layer 1" xmlns="http://www.w3.org/2000/svg" xmlns:xlink="http://www.w3.org/1999/xlink" viewBox="0 0 91.24 86"><defs><style>.cls-1{fill:none;clip-rule:evenodd;}.cls-2{clip-path:url(#clip-path);}.cls-3{clip-path:url(#clip-path-2);}.cls-4{clip-path:url(#clip-path-3);}.cls-5{fill:#231f20;}</style><clipPath id="clip-path"><path class="cls-1" d="M1428.5-382.5a2,2,0,0,0,2-2,2,2,0,0,0-2-2,2,2,0,0,0-2,2A2,2,0,0,0,1428.5-382.5ZM1425-388l9-2-2,9-9,2Z"/></clipPath><clipPath id="clip-path-2"><path class="cls-1" d="M1476-369a4,4,0,0,0,4-4,4,4,0,0,0-4-4,4,4,0,0,0-4,4A4,4,0,0,0,1476-369Zm-7-11,18-4-4,18-18,4Z"/></clipPath><clipPath id="clip-path-3"><path class="cls-1" d="M1563-341a8,8,0,0,0,8-8,8,8,0,0,0-8-8,8,8,0,0,0-8,8A8,8,0,0,0,1563-341Zm-14-22,36-8-8,36-36,8Z"/></clipPath></defs><title>icons</title><path class="cls-5" d="M54,86H0V0H54V31H48V6H6V80H48V55h6ZM69.12,65.12l-4.24-4.24L79.76,46H19V40H79.76L64.88,25.12l4.24-4.24L91.24,43Z"/></svg>