<svg id="Layer_1" data-name="Layer 1" xmlns="http://www.w3.org/2000/svg" viewBox="0 0 40.93 40.74"><defs><style>.cls-1{fill:#5c0f8b;}.cls-2{fill:#ff8300;}</style></defs><g id="Layer_2" data-name="Layer 2"><g id="AI_Analytics" data-name="AI Analytics"><path class="cls-1" d="M34.83,36.27H6.1a1.55,1.55,0,0,1-1.54-1.54V6A1.55,1.55,0,0,1,6.1,4.47h19a.51.51,0,0,1,.36.15c1.7,1.69,4.35,3.89,6.92,6,1.29,1.07,2.63,2.17,3.83,3.2a.52.52,0,0,1,.18.39V34.73A1.55,1.55,0,0,1,34.83,36.27ZM6.1,5.5A.51.51,0,0,0,5.59,6V34.73a.51.51,0,0,0,.51.52H34.83a.51.51,0,0,0,.51-.52V14.45c-1.15-1-2.41-2-3.63-3C29.2,9.35,26.6,7.2,24.87,5.5Z"/><path class="cls-1" d="M35.85,15.5H26.58a2.25,2.25,0,0,1-2.25-2.25V5.44a.52.52,0,0,1,1,0v7.81a1.22,1.22,0,0,0,1.22,1.22h9.27a.52.52,0,1,1,0,1Z"/><path class="cls-2" d="M31.75,25.5H10.21a.51.51,0,1,1,0-1H31.75a.51.51,0,0,1,0,1Z"/><path class="cls-2" d="M22.52,20.37H10.21a.51.51,0,1,1,0-1H22.52a.51.51,0,0,1,0,1Z"/><path class="cls-2" d="M31.75,30.63H10.21a.52.52,0,0,1,0-1H31.75a.52.52,0,0,1,0,1Z"/></g></g></svg>