<svg id="Layer_1" data-name="Layer 1" xmlns="http://www.w3.org/2000/svg" xmlns:xlink="http://www.w3.org/1999/xlink" viewBox="0 0 40.93 40.74"><defs><style>.cls-1{fill:url(#linear-gradient);}.cls-2,.cls-3,.cls-4{fill:none;stroke-linecap:round;}.cls-2{stroke:#fff;}.cls-2,.cls-3{stroke-linejoin:round;}.cls-2,.cls-4{stroke-width:1.29px;}.cls-3{stroke:#f48220;stroke-width:1.38px;}.cls-4{stroke:#c6c6c6;}</style><linearGradient id="linear-gradient" x1="7.71" y1="35.71" x2="33.64" y2="4.53" gradientUnits="userSpaceOnUse"><stop offset="0" stop-color="#5c0f8b"/><stop offset="0.41" stop-color="#aa4748"/><stop offset="0.76" stop-color="#e77214"/><stop offset="0.93" stop-color="#ff8300"/></linearGradient></defs><circle class="cls-1" cx="20.47" cy="20.37" r="19.23"/><path class="cls-2" d="M24.61,14a1.88,1.88,0,1,1,.2,2.83"/><polyline class="cls-2" points="17.43 13.32 8.01 22.74 18.55 33.28 31.36 20.48 31.25 14.11 27.19 10.04 20.82 9.94 18.79 11.97"/><path class="cls-3" d="M16.38,22.41A1.82,1.82,0,0,0,18.94,25c.66-.66.27-1.63,0-2.54s-.69-1.87,0-2.53a1.82,1.82,0,0,1,2.56,2.56"/><line class="cls-3" x1="21.36" y1="19.98" x2="22.06" y2="19.28"/><line class="cls-3" x1="15.75" y1="25.59" x2="16.46" y2="24.88"/><path class="cls-4" d="M25.52,15.35c-1.42.35-4.19.26-7.73-1.89s-5.82-4.82-5.12-6S16.19,7,19.36,8.7"/></svg>