<?xml version="1.0" encoding="utf-8"?>
<!-- Generator: Adobe Illustrator 25.3.1, SVG Export Plug-In . SVG Version: 6.00 Build 0)  -->
<svg version="1.1" id="Layer_1" xmlns="http://www.w3.org/2000/svg" xmlns:xlink="http://www.w3.org/1999/xlink" x="0px" y="0px"
	 viewBox="0 0 80 80" style="enable-background:new 0 0 80 80;" xml:space="preserve">
<style type="text/css">
	.st0{fill:#646569;}
	.st1{fill:#FF8300;}
</style>
<path id="Path_117" class="st0" d="M70.9,44.2c-2.1-2.1-5.6-2.1-7.8,0l0,0L55.4,52h-7.8c0.2-0.6,0.3-1.2,0.3-1.9
	c0-3.1-2.6-5.7-5.7-5.7H20.5l-5.7,5.7l-9.4,9.4l14,14.1l8.4-8.3h30.4L70.9,52c1.1-1,1.6-2.4,1.6-3.9C72.5,46.6,71.9,45.3,70.9,44.2z
	 M10.7,59.6l4.2-4.2l8.6,8.7l-4.1,4.2L10.7,59.6z M68.2,49.3L56.5,61.5H26.4l-8.8-8.7l4.5-4.5h20.1c1,0,1.9,0.8,1.9,1.9
	c0,1-0.8,1.8-1.8,1.9h-5.8v3.8h20.3l9-9c0.6-0.6,1.7-0.6,2.3,0l0,0c0.3,0.3,0.5,0.7,0.5,1.2C68.7,48.5,68.5,49,68.2,49.3L68.2,49.3z
	"/>
<path id="Path_118" class="st1" d="M42.2,6.6c-10,0-18.2,8.1-18.2,18.2s8.1,18.2,18.2,18.2s18.2-8.1,18.2-18.2c0,0,0,0,0,0
	C60.3,14.7,52.2,6.6,42.2,6.6C42.2,6.6,42.2,6.6,42.2,6.6z M42.2,39c-8,0-14.4-6.5-14.4-14.4c0-8,6.5-14.4,14.4-14.4
	c8,0,14.4,6.5,14.4,14.4v0.1l0,0C56.5,32.6,50.1,39,42.2,39z"/>
<path id="Path_119" class="st1" d="M44,13.8h-3.6v2.1c-2.8,1.1-4.1,4.2-3,7c0.8,2,2.7,3.3,4.8,3.4c1,0,1.8,0.8,1.8,1.8c0,0,0,0,0,0
	l0,0c0,1-0.8,1.8-1.8,1.8c0,0,0,0,0,0h-5.4v3.6h3.6v1.8H44v-2c2.8-0.9,4.4-4,3.4-6.8c-0.7-2.2-2.9-3.7-5.2-3.7c-1,0-1.8-0.8-1.8-1.8
	l0,0c0-1,0.8-1.8,1.8-1.8h5.4v-3.6H44V13.8z"/>
</svg>
