<?xml version="1.0" encoding="utf-8"?>
<!-- Generator: Adobe Illustrator 25.2.3, SVG Export Plug-In . SVG Version: 6.00 Build 0)  -->
<svg version="1.1" id="Layer_1" xmlns="http://www.w3.org/2000/svg" xmlns:xlink="http://www.w3.org/1999/xlink" x="0px" y="0px"
	 viewBox="0 0 94 78" style="enable-background:new 0 0 94 78;" xml:space="preserve">
<style type="text/css">
	.st0{fill:#FF8300;}
</style>
<path class="st0" d="M86.8,72H7.2V19.5h17.9L31.9,6h30.2l6.8,13.5h17.9V72z M12.3,66.9h69.4V24.6H65.7L59,11.1H35l-6.8,13.5H12.3
	V66.9z M47,61.8c-10.7,0-19.5-8.7-19.5-19.5S36.3,22.9,47,22.9s19.5,8.7,19.5,19.5S57.7,61.8,47,61.8z M47,28
	c-7.9,0-14.4,6.4-14.4,14.4S39.1,56.8,47,56.8s14.4-6.4,14.4-14.4S54.9,28,47,28L47,28z"/>
</svg>
