<svg id="Layer_1" data-name="Layer 1" xmlns="http://www.w3.org/2000/svg" viewBox="0 0 80 80"><path d="M31,72.56c-8.16,0-22-1.68-22-8v-14c0-2.45,2.18-4.18,5.32-5.38-4.62-1.2-8.16-3.08-8.16-6V25.09c0-6.66,17.24-7.63,23.11-7.79v-.71C29.34,10.44,43,8.8,51.08,8.8s21.74,1.64,21.74,7.79V44.93c0,5.27-11.17,7.44-19.83,7.79v11.9C53,70.88,39.18,72.56,31,72.56Zm-17.71-8c.54,1.11,6.46,3.79,17.71,3.79s17.16-2.68,17.71-3.79v-9C44,57.68,36.33,58.39,31,58.39s-13-.71-17.71-2.83Zm.06-13.92c.91,1.15,6.72,3.54,17.65,3.54s16.73-2.39,17.64-3.54C47.76,49.44,42,47.05,31,47.05S14.29,49.44,13.38,50.6Zm20.21-7.75c7,.28,16.29,1.7,18.76,5.61,9.21-.22,15.31-2.43,16.22-3.71V35.59c-4.56,2.11-11.9,3-17.49,3s-12.82-.8-17.49-2.83ZM10.48,39c1.15,1.31,8.22,3.55,18.86,3.78v-9.9c-4-.12-13.36-.6-18.86-3Zm23.11-8C35.48,32.32,42,34.3,51.08,34.3c10.63,0,16.69-2.58,17.49-3.7v-9c-4.69,2.13-12.26,2.84-17.49,2.84s-12.81-.71-17.49-2.84Zm-23-5.88c1.42,1.32,8.13,3.33,18.7,3.55V21.55C18.77,21.76,12,23.78,10.64,25.09Zm23-8.5c1,1.31,7.39,3.55,17.43,3.55s16.48-2.24,17.43-3.55c-1-1.31-7.39-3.54-17.43-3.54S34.6,15.28,33.65,16.59Z"/></svg>