<svg id="Layer_1" data-name="Layer 1" xmlns="http://www.w3.org/2000/svg" viewBox="0 0 80 80"><defs><style>.cls-1{fill:#646569;}.cls-2{fill:#ff8300;}</style></defs><path class="cls-1" d="M69.82,22.38v15H67.09V70.17H13.84V37.4H11.11v-15ZM42.51,66.07H63V37.4H42.51Zm-24.58,0H38.42V37.4H17.93ZM42.51,33.3H65.73V26.47H42.51Zm-27.31,0H38.42V26.47H15.2Z"/><path class="cls-2" d="M23.72,22.34a6.64,6.64,0,0,1-1.59-1,4.15,4.15,0,0,1-1.24-3c0-2.56,1.95-5.15,5.68-5.15,4.23,0,8,5.13,10.23,9.14h7.41c2.08-4,5.8-9.14,10.35-9.12h.23a5.28,5.28,0,0,1,5.26,5.3,4,4,0,0,1-1.18,2.93,4.65,4.65,0,0,1-1.5.9h5.87a8.33,8.33,0,0,0,.94-3.85v-.21a9.42,9.42,0,0,0-9.62-9.21c-7,0-11.74,7-14.05,11.47-2.43-4.45-7.3-11.47-13.94-11.47a9.35,9.35,0,0,0-9.8,9.28,8.4,8.4,0,0,0,1,4Z"/></svg>