<svg id="Layer_1" data-name="Layer 1" xmlns="http://www.w3.org/2000/svg" viewBox="0 0 40.93 40.74"><defs><style>.cls-1{fill:#c8e379;}</style></defs><path class="cls-1" d="M37.23,19.36a3.54,3.54,0,0,0-3.62-3.55H26.76a58.39,58.39,0,0,0,1-8.49c0-3.72-2.27-4.27-3.62-4.27-.89,0-3,.35-3,3.59,0,1.64-.94,4.92-5.43,11.22l-.05.07A6.92,6.92,0,0,0,15,19.3H4.48a.71.71,0,0,0-.51.21,1.42,1.42,0,0,0-.27,1V35.17a.76.76,0,0,0,.18.6.78.78,0,0,0,.6.18h9.33l.06,0a2.7,2.7,0,0,0,.33.22h0l.27.14a1,1,0,0,0,.52.43,20.69,20.69,0,0,0,6.27.92h9.19a3.44,3.44,0,0,0,3.29-4.88,4.11,4.11,0,0,0,.51-.27,3.66,3.66,0,0,0,1.15-5,3.35,3.35,0,0,0,.74-.56,3.62,3.62,0,0,0,0-5.12A3.43,3.43,0,0,0,37.23,19.36Z"/></svg>