<svg id="Layer_1" data-name="Layer 1" xmlns="http://www.w3.org/2000/svg" xmlns:xlink="http://www.w3.org/1999/xlink" viewBox="0 0 40.93 40.74"><defs><style>.cls-1{fill:url(#linear-gradient);}.cls-2{fill:#c6c6c6;}.cls-3{fill:#fff;}.cls-4{fill:#ff8300;}</style><linearGradient id="linear-gradient" x1="7.71" y1="35.71" x2="33.64" y2="4.53" gradientUnits="userSpaceOnUse"><stop offset="0" stop-color="#5c0f8b"/><stop offset="0.41" stop-color="#aa4748"/><stop offset="0.76" stop-color="#e77214"/><stop offset="0.93" stop-color="#ff8300"/></linearGradient></defs><circle class="cls-1" cx="20.47" cy="20.37" r="19.23"/><g id="Product-Page-"><g id="_0P01-Switch-Default-01" data-name="0P01-Switch-Default-01"><g id="Group-3"><g id="UI-Elements_Content-blocks_3-column_With-icon_Large_With-Icon-Copy-2" data-name="UI-Elements/Content-blocks/3-column/With-icon/Large/With-Icon-Copy-2"><g id="Elements_Desktop_Icons_Lifetime-Warranty-for-Switches_White" data-name="Elements/Desktop/Icons/Lifetime-Warranty-for-Switches/White"><rect id="Rectangle" class="cls-2" x="16.69" y="22.3" width="1.39" height="1.37" rx="0.26"/><rect id="Rectangle-2" data-name="Rectangle" class="cls-2" x="25.82" y="22.3" width="1.39" height="1.37" rx="0.26"/><rect id="Rectangle-3" data-name="Rectangle" class="cls-2" x="10.06" y="22.3" width="1.39" height="1.37" rx="0.26"/><rect id="Rectangle-4" data-name="Rectangle" class="cls-2" x="12.27" y="22.3" width="1.39" height="1.37" rx="0.26"/><rect id="Rectangle-5" data-name="Rectangle" class="cls-2" x="14.48" y="22.3" width="1.39" height="1.37" rx="0.26"/><rect id="Rectangle-6" data-name="Rectangle" class="cls-2" x="19.19" y="22.3" width="1.39" height="1.37" rx="0.26"/><rect id="Rectangle-7" data-name="Rectangle" class="cls-2" x="21.4" y="22.3" width="1.39" height="1.37" rx="0.26"/><rect id="Rectangle-8" data-name="Rectangle" class="cls-2" x="23.61" y="22.3" width="1.39" height="1.37" rx="0.26"/><path id="Path" class="cls-2" d="M32.82,23.39c0,.06-.08.1-.17.1h-1c-.1,0-.17,0-.17-.1v-.62c0-.06.07-.1.17-.1h1c.09,0,.17,0,.17.1Z"/><path id="Path-2" data-name="Path" class="cls-2" d="M30,23.4c0,.05-.08.1-.17.1H28.77c-.09,0-.16-.05-.16-.1v-.63c0-.06.07-.1.16-.1h1.06c.09,0,.17,0,.17.1Z"/><path class="cls-3" d="M37.22,18.2a.44.44,0,0,0-.12-.15c-.71-.63-4.26-3.74-4.46-3.89l0,0a3.38,3.38,0,0,0-2-.58H10.46a3.45,3.45,0,0,0-2.07.56l0,0c-.2.16-4,3.5-4.48,3.89a.27.27,0,0,0-.07.08.56.56,0,0,0-.25.47v5.6a1.22,1.22,0,0,0,.37.88,1.26,1.26,0,0,0,.87.36H36.11a1.2,1.2,0,0,0,.9-.36,1.22,1.22,0,0,0,.37-.88V18.6A.56.56,0,0,0,37.22,18.2ZM9,15.06a2.3,2.3,0,0,1,1.41-.37H30.65a2.16,2.16,0,0,1,1.31.37c.21.17,1.81,1.57,3.28,2.86H5.74C7.21,16.62,8.81,15.24,9,15.06ZM36.26,24.2a.11.11,0,0,1,0,.08.21.21,0,0,1-.11,0H4.8a.18.18,0,0,1-.1,0,.11.11,0,0,1,0-.08v-5H36.26Z"/><path class="cls-4" d="M34.87,20.94h-1a.43.43,0,0,1,0-.85h1a.43.43,0,1,1,0,.85Z"/></g></g></g></g></g></svg>