<svg id="Layer_1" data-name="Layer 1" xmlns="http://www.w3.org/2000/svg" xmlns:xlink="http://www.w3.org/1999/xlink" viewBox="0 0 40.93 40.74"><defs><style>.cls-1{fill:url(#linear-gradient);}.cls-2{fill:#5c0f8b;}.cls-3{fill:#fff;}.cls-4{fill:#c6c6c6;stroke:#c6c6c6;stroke-miterlimit:10;stroke-width:0.3px;}.cls-5{fill:#ff8300;}</style><linearGradient id="linear-gradient" x1="7.71" y1="35.71" x2="33.64" y2="4.53" gradientUnits="userSpaceOnUse"><stop offset="0" stop-color="#5c0f8b"/><stop offset="0.41" stop-color="#aa4748"/><stop offset="0.76" stop-color="#e77214"/><stop offset="0.93" stop-color="#ff8300"/></linearGradient></defs><circle class="cls-1" cx="20.47" cy="20.37" r="19.23"/><g id="Components-_-Symbols" data-name="Components-&amp;-Symbols"><g id="Components_Desktop_Types_features_ProductCategoryPage_Switch-DefaultALT" data-name="Components/Desktop/Types&amp;features/ProductCategoryPage/Switch-DefaultALT"><g id="Elements_Content-blocks_With-icon" data-name="Elements/Content-blocks/With-icon"><g id="Manage-Network-Icon"><g id="noun_Cell-Phone_3502922" data-name="noun Cell-Phone 3502922"><path id="Shape" class="cls-2" d="M20.47,31.64A1,1,0,0,0,21.16,30a1,1,0,1,0-.69,1.67Zm0-1.63a.65.65,0,1,1-.65.65A.66.66,0,0,1,20.47,30ZM28,11.27V9.86a1.76,1.76,0,0,0-1.75-1.75H14.71A1.76,1.76,0,0,0,13,9.86v1.42h0V28.88h0v2a1.75,1.75,0,0,0,1.75,1.75H26.22A1.75,1.75,0,0,0,28,30.88v-2h0V11.28ZM13.36,9.86a1.35,1.35,0,0,1,1.35-1.34H26.22a1.35,1.35,0,0,1,1.35,1.34v1.22H13.36Zm14.21,21a1.36,1.36,0,0,1-1.35,1.35H14.71a1.36,1.36,0,0,1-1.35-1.35V29.09H27.57Zm0-2.19H13.36V11.48H27.57Z"/><path class="cls-3" d="M26.22,32.85H14.71a2,2,0,0,1-2-2v-21a2,2,0,0,1,2-2H26.22a2,2,0,0,1,2,2v21A2,2,0,0,1,26.22,32.85ZM13.59,29.31v1.57A1.12,1.12,0,0,0,14.71,32H26.22a1.12,1.12,0,0,0,1.12-1.12V29.31Zm0-.85H27.35V11.71H13.59Zm0-17.6H27.34v-1a1.12,1.12,0,0,0-1.12-1.12H14.71a1.12,1.12,0,0,0-1.12,1.12Zm6.88,21h0a1.22,1.22,0,0,1-1.21-1.2,1.21,1.21,0,0,1,2.06-.85,1.18,1.18,0,0,1,.26,1.31A1.2,1.2,0,0,1,20.47,31.86Zm0-1.63a.43.43,0,0,0-.43.43.41.41,0,0,0,.26.39.43.43,0,0,0,.47-.09.41.41,0,0,0,.09-.46A.41.41,0,0,0,20.47,30.23Z"/></g><path id="Path" class="cls-4" d="M20.73,9.55H19a.3.3,0,1,0,0,.59h1.71a.3.3,0,1,0,0-.59Z"/><path id="Path-2" data-name="Path" class="cls-4" d="M22,9.55h-.1a.3.3,0,0,0,0,.59H22a.3.3,0,1,0,0-.59Z"/><g id="Group"><path id="Shape-2" data-name="Shape" class="cls-5" d="M20.47,21.51A1.7,1.7,0,0,1,19.29,21a1.68,1.68,0,0,1,0-2.37,1.64,1.64,0,0,1,1.18-.49,1.66,1.66,0,0,1,1.19.49,1.68,1.68,0,0,1-1.19,2.86Zm0-3.21a1.51,1.51,0,0,0-1.08.45,1.53,1.53,0,0,0,0,2.17,1.51,1.51,0,0,0,1.08.45,1.5,1.5,0,0,0,1.08-.45,1.53,1.53,0,0,0,0-2.17A1.5,1.5,0,0,0,20.47,18.3Z"/><path class="cls-5" d="M20.47,21.81a2,2,0,0,1-1.39-.58,2,2,0,0,1,0-2.79,2,2,0,1,1,1.39,3.37Zm0-3.21a1.23,1.23,0,0,0-.87.36,1.26,1.26,0,0,0-.36.87,1.23,1.23,0,0,0,.36.87,1.21,1.21,0,0,0,1.74,0,1.23,1.23,0,0,0-.87-2.1Z"/><path id="Shape-3" data-name="Shape" class="cls-3" d="M20.66,24.35h0l-.9-.06s-.06,0-.06-.06c-.13-.62-.19-.89-.21-1a3.51,3.51,0,0,1-1-.5l-.95.46a.07.07,0,0,1-.09,0l-.59-.68a.1.1,0,0,1,0-.09l.58-.87A3.42,3.42,0,0,1,17,20.45l-1-.36A.08.08,0,0,1,16,20l.07-.9a.06.06,0,0,1,0-.06l1-.22a3.38,3.38,0,0,1,.52-1.06l-.48-.91a.07.07,0,0,1,0-.09l.68-.59a.06.06,0,0,1,.08,0l.88.56a3.61,3.61,0,0,1,1.06-.37l.36-1a.08.08,0,0,1,.07-.05l.9.06a.11.11,0,0,1,.07.06l.22,1a3.53,3.53,0,0,1,1,.5l1-.45a.07.07,0,0,1,.08,0l.59.68a.06.06,0,0,1,0,.08l-.56.88a3.51,3.51,0,0,1,.37,1.06l1,.36a.08.08,0,0,1,.05.07l-.06.9s0,.06-.06.06l-1,.22a3.42,3.42,0,0,1-.49,1l.45.95a.07.07,0,0,1,0,.09l-.68.59a.1.1,0,0,1-.09,0l-.87-.57a3.57,3.57,0,0,1-1.07.37c0,.11-.13.36-.35,1A.08.08,0,0,1,20.66,24.35Zm-.84-.2.79.05.35-1v0a.1.1,0,0,1,.05,0,3.25,3.25,0,0,0,1.11-.38.09.09,0,0,1,.07,0l.86.57.6-.52-.45-.95a.06.06,0,0,1,0-.07,3.52,3.52,0,0,0,.51-1s0-.05.05-.05l1-.22,0-.79-1-.35s0,0-.05-.06a3.29,3.29,0,0,0-.38-1.09.08.08,0,0,1,0-.07v0l.55-.85-.52-.6-.95.44h-.07a3.06,3.06,0,0,0-1-.51.06.06,0,0,1,0-.06l-.22-1-.8,0-.35,1v0a.09.09,0,0,1-.06,0,3.29,3.29,0,0,0-1.09.38h-.09l-.85-.55-.6.52.48.9a.08.08,0,0,1,0,.08,3.27,3.27,0,0,0-.54,1.09,0,0,0,0,1,0,0l-1,.21-.05.8,1,.35a.07.07,0,0,1,0,.05,3.67,3.67,0,0,0,.39,1.11.09.09,0,0,1,0,.07l-.57.86.52.6.95-.45s.05,0,.07,0a3.15,3.15,0,0,0,1.06.51.08.08,0,0,1,.05.07h0C19.62,23.22,19.74,23.77,19.82,24.15Z"/><path class="cls-5" d="M20.66,24.65h0l-.89-.07a.36.36,0,0,1-.33-.29c-.1-.42-.15-.68-.18-.85a3.83,3.83,0,0,1-.79-.38l-.8.38a.35.35,0,0,1-.44-.09l-.6-.68a.36.36,0,0,1,0-.44L17,21.5a3.41,3.41,0,0,1-.29-.83l-.84-.3a.36.36,0,0,1-.25-.37l.07-.9a.36.36,0,0,1,.29-.34l.85-.18a3.66,3.66,0,0,1,.4-.82l-.4-.75a.38.38,0,0,1,.09-.46l.68-.59a.36.36,0,0,1,.44,0l.73.47a3.56,3.56,0,0,1,.83-.29l.3-.83A.37.37,0,0,1,20.3,15l.91.06a.41.41,0,0,1,.34.3l.18.84a3.83,3.83,0,0,1,.79.38l.8-.37a.38.38,0,0,1,.44.09l.59.68a.38.38,0,0,1,0,.45l-.47.72a4,4,0,0,1,.29.82l.83.3a.38.38,0,0,1,.25.38l-.06.9a.41.41,0,0,1-.3.34l-.84.18a4.06,4.06,0,0,1-.39.78l.39.8a.37.37,0,0,1-.1.44l-.68.6a.38.38,0,0,1-.44,0l-.73-.48a4,4,0,0,1-.82.29c0,.15-.14.4-.3.84A.39.39,0,0,1,20.66,24.65Zm-.6-.79.34,0,.27-.76,0-.07a.36.36,0,0,1,.27-.19,3.22,3.22,0,0,0,1-.35.37.37,0,0,1,.38,0L23,23l.25-.22L22.93,22a.4.4,0,0,1,0-.38,2.91,2.91,0,0,0,.47-.95.36.36,0,0,1,.28-.26l.78-.17,0-.34-.77-.28a.37.37,0,0,1-.24-.29,3.22,3.22,0,0,0-.35-1,.38.38,0,0,1,0-.37l0,0,.42-.65L23.38,17l-.74.35a.38.38,0,0,1-.37,0,3,3,0,0,0-1-.46.39.39,0,0,1-.26-.28l-.17-.78-.34,0-.31.84a.36.36,0,0,1-.26.17,3.22,3.22,0,0,0-1,.35.35.35,0,0,1-.33,0l-.08,0-.64-.42-.25.22.36.69a.36.36,0,0,1,0,.4,3.16,3.16,0,0,0-.49,1,.34.34,0,0,1-.28.26l-.78.17,0,.34.78.28a.35.35,0,0,1,.24.29,3.22,3.22,0,0,0,.35,1,.37.37,0,0,1,0,.39l-.44.67.22.25.74-.35a.37.37,0,0,1,.38,0,3.18,3.18,0,0,0,1,.47.36.36,0,0,1,.27.32h0C19.92,23.19,20,23.48,20.06,23.86Z"/></g></g></g></g></g></svg>