<svg id="Layer_1" data-name="Layer 1" xmlns="http://www.w3.org/2000/svg" viewBox="0 0 40.93 40.74"><defs><style>.cls-1,.cls-4{fill:none;stroke:#5c0f8b;stroke-miterlimit:10;}.cls-2{fill:#ff8300;}.cls-3{fill:#5c0f8b;}.cls-4{stroke-width:0.5px;}</style></defs><rect class="cls-1" x="2.08" y="8.99" width="37.12" height="22.88"/><path class="cls-2" d="M16.15,26.12a.47.47,0,0,1-.47-.47l0-10.42a.47.47,0,0,1,.47-.48.5.5,0,0,1,.24.06l9,5.19a.48.48,0,0,1,.17.65.46.46,0,0,1-.17.17l-4.51,2.62h0l-4.5,2.62A.53.53,0,0,1,16.15,26.12ZM16.6,16l0,8.79,7.6-4.41Zm4,7Z"/><circle class="cls-3" cx="4.63" cy="22.85" r="0.68"/><circle class="cls-3" cx="4.63" cy="20.44" r="0.68"/><circle class="cls-3" cx="4.63" cy="18.02" r="0.68"/><line class="cls-4" x1="7.16" y1="15.07" x2="7.16" y2="25.81"/></svg>