<?xml version="1.0" encoding="utf-8"?>
<!-- Generator: Adobe Illustrator 25.3.1, SVG Export Plug-In . SVG Version: 6.00 Build 0)  -->
<svg version="1.1" id="Layer_1" xmlns="http://www.w3.org/2000/svg" xmlns:xlink="http://www.w3.org/1999/xlink" x="0px" y="0px"
	 viewBox="0 0 80 80" style="enable-background:new 0 0 80 80;" xml:space="preserve">
<style type="text/css">
	.st0{fill:#FF8300;}
</style>
<path id="Path_118" class="st0" d="M40,3C19.6,3,3,19.6,3,40s16.6,37,37,37s37-16.6,37-37C77,19.6,60.5,3,40,3C40,3,40,3,40,3z
	 M40,71.3c-17.4,0-31.5-14.1-31.5-31.5S22.6,8.2,40,8.2s31.5,14.1,31.5,31.5V40l0,0C71.4,57.3,57.3,71.3,40,71.3z"/>
<rect x="37.8" y="14" class="st0" width="4.4" height="27.2"/>
<rect x="37.6" y="37.8" class="st0" width="27.2" height="4.4"/>
</svg>
