<svg id="Layer_1" data-name="Layer 1" xmlns="http://www.w3.org/2000/svg" xmlns:xlink="http://www.w3.org/1999/xlink" viewBox="0 0 40.93 40.74"><defs><style>.cls-1{fill:url(#linear-gradient);}.cls-2,.cls-3{fill:none;stroke-linecap:round;stroke-linejoin:round;}.cls-2{stroke:#fff;stroke-width:1.2px;}.cls-3{stroke:#f48220;stroke-width:1.29px;}</style><linearGradient id="linear-gradient" x1="7.71" y1="35.71" x2="33.64" y2="4.53" gradientUnits="userSpaceOnUse"><stop offset="0" stop-color="#5c0f8b"/><stop offset="0.41" stop-color="#aa4748"/><stop offset="0.76" stop-color="#e77214"/><stop offset="0.93" stop-color="#ff8300"/></linearGradient></defs><circle class="cls-1" cx="20.47" cy="20.37" r="19.23"/><path class="cls-2" d="M16.53,12V10.2A1.2,1.2,0,0,1,17.73,9H23.2a1.2,1.2,0,0,1,1.2,1.2V12"/><path class="cls-2" d="M33.1,21v5.26a1.2,1.2,0,0,1-1.2,1.2H9a1.2,1.2,0,0,1-1.2-1.2V21"/><line class="cls-2" x1="24.76" y1="19.3" x2="16.19" y2="19.3"/><path class="cls-2" d="M13.33,19.3H7.83V14.81A1.2,1.2,0,0,1,9,13.61H31.9a1.2,1.2,0,0,1,1.2,1.2V19.3H27.6"/><rect class="cls-3" x="13.37" y="17.45" width="2.75" height="3.71"/><rect class="cls-3" x="24.81" y="17.45" width="2.75" height="3.71"/></svg>