<?xml version="1.0" encoding="utf-8"?>
<!-- Generator: Adobe Illustrator 25.2.3, SVG Export Plug-In . SVG Version: 6.00 Build 0)  -->
<svg version="1.1" id="Layer_1" xmlns="http://www.w3.org/2000/svg" xmlns:xlink="http://www.w3.org/1999/xlink" x="0px" y="0px"
	 viewBox="0 0 725.7 718.6" style="enable-background:new 0 0 725.7 718.6;" xml:space="preserve">
<style type="text/css">
	.st0{fill:none;stroke:#FF8300;stroke-width:40;stroke-linejoin:round;}
	.st1{fill:none;stroke:#FB8300;stroke-width:40;stroke-miterlimit:10;}
	.st2{fill:none;stroke:#FF8300;stroke-width:40;stroke-linecap:round;stroke-linejoin:bevel;}
</style>
<g id="Miscellaneous">
	<g id="Edit">
		<path class="st0" d="M342.5,458c-3.3,3.6-5.9,7.8-7.6,12.5l-39.6,120.7l120.6-39.8c4.6-1.7,8.8-4.2,12.4-7.6l257.2-257.2
			c14.6-14.6,14.6-38.2,0-52.7l0,0l-33.1-33.1c-14.5-14.6-38-14.6-52.6-0.2c-0.1,0.1-0.1,0.1-0.2,0.2L342.5,458z"/>
		<line class="st1" x1="423" y1="549.1" x2="337.1" y2="463.3"/>
		<path class="st2" d="M550.1,421.2v228c0,19.5-17.6,35.1-39.2,35.1H78.8c-21.6,0-39.1-15.7-39.1-35.1V69.4
			c0-19.4,17.6-35.1,39.1-35.1H511c21.7,0,39.2,15.7,39.2,35.1l0.7,180.2"/>
	</g>
</g>
</svg>
