<svg id="Layer_1" data-name="Layer 1" xmlns="http://www.w3.org/2000/svg" viewBox="0 0 80 80"><defs><style>.cls-1{fill:#646569;stroke:#646569;stroke-miterlimit:10;stroke-width:0.25px;}</style></defs><g id="Layer_2" data-name="Layer 2"><g id="Miscellaneous"><g id="Access_Point" data-name="Access Point"><path id="Path_248" data-name="Path 248" class="cls-1" d="M63.44,71.82l-.84,0a87.37,87.37,0,0,0-44,0l-.23,0H18a6.09,6.09,0,0,1-6.07-6.08V16.16a6.1,6.1,0,0,1,6-6.08H18l.12,0A80.11,80.11,0,0,0,39.27,13a98,98,0,0,0,23.44-2.84l.25,0h.48a6.08,6.08,0,0,1,6.07,6.08V65.74A6.07,6.07,0,0,1,63.44,71.82Zm-.5-1.95h.5a4.12,4.12,0,0,0,4.12-4.13V16.16A4.14,4.14,0,0,0,63.44,12h-.37a100.46,100.46,0,0,1-23.8,2.88A81.1,81.1,0,0,1,17.8,12a4.13,4.13,0,0,0-4,4.13V65.74A4.12,4.12,0,0,0,18,69.87h.32a89.17,89.17,0,0,1,44.67,0Z"/><path id="Path_249" data-name="Path 249" class="cls-1" d="M40.49,33A21.28,21.28,0,0,1,19.24,11.76h2a19.3,19.3,0,0,0,38.6,0h2A21.28,21.28,0,0,1,40.49,33Z"/><path id="Path_250" data-name="Path 250" class="cls-1" d="M61.74,70.09h-2a19.3,19.3,0,1,0-38.6,0h-2a21.25,21.25,0,1,1,42.5,0v0Z"/><path id="Path_251" data-name="Path 251" class="cls-1" d="M40.49,46.67a5.74,5.74,0,1,1,5.73-5.74h0A5.74,5.74,0,0,1,40.49,46.67Zm0-9.52a3.78,3.78,0,1,0,3.78,3.78h0A3.78,3.78,0,0,0,40.49,37.15Z"/><path id="Path_252" data-name="Path 252" class="cls-1" d="M48.7,46.21a1,1,0,0,1-1-1,.94.94,0,0,1,.22-.62,5.93,5.93,0,0,0,.12-7.38,1,1,0,0,1,.16-1.37A1,1,0,0,1,49.6,36l0,0a7.88,7.88,0,0,1-.17,9.81A1,1,0,0,1,48.7,46.21Z"/><path id="Path_253" data-name="Path 253" class="cls-1" d="M51.81,48.66a1,1,0,0,1-1-1,1,1,0,0,1,.22-.62,9.9,9.9,0,0,0,.22-12.29,1,1,0,0,1,.18-1.37,1,1,0,0,1,1.37.19,11.76,11.76,0,0,1,2.44,7.19,12,12,0,0,1-2.69,7.52A1,1,0,0,1,51.81,48.66Z"/><path id="Path_254" data-name="Path 254" class="cls-1" d="M55,50.89a1,1,0,0,1-1-1,1,1,0,0,1,.22-.62,13.53,13.53,0,0,0,3.07-8.55,13.35,13.35,0,0,0-2.78-8.19,1,1,0,0,1,1.55-1.19,15.24,15.24,0,0,1,3.17,9.38,15.46,15.46,0,0,1-3.5,9.79A1,1,0,0,1,55,50.89Z"/><path id="Path_255" data-name="Path 255" class="cls-1" d="M32.07,46.21a1,1,0,0,1-.78-.38A7.81,7.81,0,0,1,29.67,41a7.93,7.93,0,0,1,1.79-5,1,1,0,0,1,1.38-.13A1,1,0,0,1,33,37.25a6,6,0,0,0-.13,7.39,1,1,0,0,1-.77,1.57Z"/><path id="Path_256" data-name="Path 256" class="cls-1" d="M28.86,48.66a1,1,0,0,1-.77-.38,11.85,11.85,0,0,1,.25-14.72,1,1,0,0,1,1.57,1.15l-.07.09a9.92,9.92,0,0,0-.21,12.29,1,1,0,0,1-.18,1.36,1,1,0,0,1-.59.2Z"/><path id="Path_257" data-name="Path 257" class="cls-1" d="M25.62,50.89a1,1,0,0,1-.77-.39,15.27,15.27,0,0,1-3.18-9.38,15.53,15.53,0,0,1,3.51-9.79,1,1,0,0,1,1.51,1.24,13.5,13.5,0,0,0-.29,16.75,1,1,0,0,1-.18,1.36,1,1,0,0,1-.59.2Z"/><path id="Path_258" data-name="Path 258" class="cls-1" d="M40.55,57.25a7.89,7.89,0,0,1-5-1.8,1,1,0,0,1,1.24-1.51h0a5.94,5.94,0,0,0,7.39.13,1,1,0,0,1,1.36.2,1,1,0,0,1-.18,1.35A7.86,7.86,0,0,1,40.55,57.25Z"/><path id="Path_259" data-name="Path 259" class="cls-1" d="M40.6,61.27a11.9,11.9,0,0,1-7.51-2.7,1,1,0,0,1,1.24-1.5,9.9,9.9,0,0,0,12.29.21,1,1,0,1,1,1.2,1.53l0,0A11.77,11.77,0,0,1,40.6,61.27Z"/><path id="Path_260" data-name="Path 260" class="cls-1" d="M44.76,28.3a1,1,0,0,1-.62-.22,6,6,0,0,0-3.77-1.35A5.86,5.86,0,0,0,36.75,28a1,1,0,0,1-1.37-.18,1,1,0,0,1,.19-1.37,7.76,7.76,0,0,1,4.79-1.62,7.93,7.93,0,0,1,5,1.79,1,1,0,0,1-.63,1.73Z"/><path id="Path_261" data-name="Path 261" class="cls-1" d="M47.21,25.18a1,1,0,0,1-.62-.22,9.88,9.88,0,0,0-12.29-.21,1,1,0,0,1-1.19-1.55,11.85,11.85,0,0,1,14.72.25,1,1,0,0,1-.62,1.73Z"/><path id="Path_262" data-name="Path 262" class="cls-1" d="M67.75,27.85H64.24a1,1,0,0,1-1-1,1,1,0,0,1,.95-1h3.56a1,1,0,0,1,0,2Z"/><path id="Path_263" data-name="Path 263" class="cls-1" d="M67.75,31.86H64.24a1,1,0,1,1,0-1.95h3.51a1,1,0,1,1,0,1.95Z"/><path id="Path_264" data-name="Path 264" class="cls-1" d="M67.75,35.87H64.24a1,1,0,1,1,0-1.95h3.52a1,1,0,0,1,0,1.95Z"/><path id="Path_265" data-name="Path 265" class="cls-1" d="M67.75,39.89H64.24a1,1,0,0,1,0-2h3.52a1,1,0,0,1,0,2Z"/><path id="Path_266" data-name="Path 266" class="cls-1" d="M67.75,43.9H64.24a1,1,0,1,1,0-1.95h3.56a1,1,0,0,1,1,.94,1,1,0,0,1-1,1Z"/><path id="Path_267" data-name="Path 267" class="cls-1" d="M67.75,47.91H64.24a1,1,0,1,1,0-1.95h3.56a1,1,0,1,1,0,1.95Z"/><path id="Path_268" data-name="Path 268" class="cls-1" d="M67.75,51.92H64.24a1,1,0,0,1,0-2h3.56a1,1,0,0,1,0,2Z"/><path id="Path_269" data-name="Path 269" class="cls-1" d="M67.75,55.93H64.24a1,1,0,0,1,0-2h3.56a1,1,0,0,1,0,2Z"/><path id="Path_270" data-name="Path 270" class="cls-1" d="M17,27.85H12.69a1,1,0,0,1-1-1,1,1,0,0,1,1-1H17a1,1,0,0,1,1,1,1,1,0,0,1-1,1Z"/><path id="Path_271" data-name="Path 271" class="cls-1" d="M17,31.86H12.69a1,1,0,1,1,0-1.95H17a1,1,0,0,1,0,1.95Z"/><path id="Path_272" data-name="Path 272" class="cls-1" d="M17,35.87H12.69a1,1,0,0,1,0-1.95H17a1,1,0,1,1,0,1.95Z"/><path id="Path_273" data-name="Path 273" class="cls-1" d="M17,39.89H12.69a1,1,0,0,1,0-2H17a1,1,0,0,1,0,2Z"/><path id="Path_274" data-name="Path 274" class="cls-1" d="M17,43.9H12.69a1,1,0,0,1,0-1.95H17a1,1,0,1,1,.06,1.95Z"/><path id="Path_275" data-name="Path 275" class="cls-1" d="M17,47.91H12.69a1,1,0,0,1,0-1.95H17a1,1,0,1,1,.06,1.95Z"/><path id="Path_276" data-name="Path 276" class="cls-1" d="M17,51.92H12.69a1,1,0,0,1,0-2H17a1,1,0,1,1,.06,2Z"/><path id="Path_277" data-name="Path 277" class="cls-1" d="M17,55.93H12.69a1,1,0,1,1,0-2H17a1,1,0,0,1,1,1,1,1,0,0,1-1,1Z"/></g></g></g></svg>