<svg id="Layer_1" data-name="Layer 1" xmlns="http://www.w3.org/2000/svg" viewBox="0 0 40.93 40.74"><defs><style>.cls-1{fill:#5c0f8b;}.cls-2{fill:#ff8300;}</style></defs><g id="Layer_2" data-name="Layer 2"><g id="AI_Analytics" data-name="AI Analytics"><path class="cls-1" d="M20.16,37.58a17,17,0,1,1,17-17A17,17,0,0,1,20.16,37.58Zm0-32.76A15.75,15.75,0,1,0,35.91,20.57,15.77,15.77,0,0,0,20.16,4.82Z"/><path class="cls-2" d="M15.72,28.19a.63.63,0,0,1-.63-.63l0-13.88a.64.64,0,0,1,.63-.64.62.62,0,0,1,.32.09L28,20a.62.62,0,0,1,.23.86.63.63,0,0,1-.23.23l-6,3.49h0L16,28.1A.56.56,0,0,1,15.72,28.19Zm.6-13.42,0,11.69,10.11-5.87Zm5.4,9.3Z"/></g></g></svg>