<svg id="Layer_1" data-name="Layer 1" xmlns="http://www.w3.org/2000/svg" viewBox="0 0 80 80"><defs><style>.cls-1,.cls-2{fill:#646569;}.cls-2{stroke:#646569;stroke-miterlimit:10;}.cls-3{fill:#fff;}</style></defs><g id="Miscellaneous"><g id="Other"><path id="Path_287" data-name="Path 287" class="cls-1" d="M32.61,54.32a2.48,2.48,0,0,1-.56,1.74,2.56,2.56,0,0,1-3.29,0,3,3,0,0,1,0-3.47,2.57,2.57,0,0,1,3.29,0A2.41,2.41,0,0,1,32.61,54.32Zm-3.12,0c0,.88.3,1.32.91,1.32a.78.78,0,0,0,.69-.32,2.29,2.29,0,0,0,0-2,.75.75,0,0,0-.68-.32C29.79,53,29.49,53.44,29.49,54.32Z"/><path id="Path_288" data-name="Path 288" class="cls-1" d="M35.92,56.6H34.7V53.06H33.59v-1H37v1H35.92Z"/><path id="Path_289" data-name="Path 289" class="cls-1" d="M42.07,56.6H40.84V54.75H39.41V56.6H38.18V52.06h1.23v1.68h1.43V52.06h1.23Z"/><path id="Path_290" data-name="Path 290" class="cls-1" d="M46.29,56.6h-2.7V52.06h2.7v1H44.82v.72h1.36v1H44.82v.86h1.47Z"/><path id="Path_291" data-name="Path 291" class="cls-1" d="M48.91,54.94V56.6H47.69V52.06h1.48c1.24,0,1.85.44,1.85,1.34a1.34,1.34,0,0,1-.77,1.23l1.33,2H50.19l-1-1.65Zm0-.92h.23c.43,0,.64-.19.64-.57s-.21-.47-.63-.47h-.24Z"/><path id="Path_292" data-name="Path 292" class="cls-2" d="M70.47,62.68H9.74a2.62,2.62,0,0,1-2.35-2.46V27.05h1V60.22A1.64,1.64,0,0,0,9.74,61.7H70.47c.6,0,1-.78,1-1.48V27.05h1V60.22A2.29,2.29,0,0,1,70.47,62.68Z"/><path id="Path_293" data-name="Path 293" class="cls-1" d="M72.82,24.94H7V17c0-.95,1-1.42,1.89-1.42H71.28a1.34,1.34,0,0,1,1.53,1.12,1.51,1.51,0,0,1,0,.3Z"/><circle id="Ellipse_55" data-name="Ellipse 55" class="cls-3" cx="57.4" cy="19.96" r="1.29"/><circle id="Ellipse_56" data-name="Ellipse 56" class="cls-3" cx="61.97" cy="19.96" r="1.29"/><circle id="Ellipse_57" data-name="Ellipse 57" class="cls-3" cx="66.54" cy="19.96" r="1.29"/><circle id="Ellipse_58" data-name="Ellipse 58" class="cls-1" cx="30.26" cy="40.68" r="1.71"/><circle id="Ellipse_59" data-name="Ellipse 59" class="cls-1" cx="40.05" cy="40.68" r="1.71"/><circle id="Ellipse_60" data-name="Ellipse 60" class="cls-1" cx="49.84" cy="40.68" r="1.71"/></g></g></svg>