<?xml version="1.0" encoding="utf-8"?>
<!-- Generator: Adobe Illustrator 23.0.1, SVG Export Plug-In . SVG Version: 6.00 Build 0)  -->
<svg version="1.1" id="Capa_1" xmlns="http://www.w3.org/2000/svg" xmlns:xlink="http://www.w3.org/1999/xlink" x="0px" y="0px"
	 viewBox="0 0 58.5 30.8" style="enable-background:new 0 0 58.5 30.8;" xml:space="preserve">
<style type="text/css">
	.st0{fill:#FF8300;}
</style>
<path class="st0" d="M57.5,1c-0.6-0.7-1.5-1-2.4-1c0,0,0,0,0,0c-0.9,0-1.8,0.4-2.4,1L29.9,23.7c-0.4,0.4-1,0.4-1.3,0L5.9,1
	C4.5-0.3,2.3-0.3,1,1C0.4,1.7,0,2.5,0,3.4c0,0.9,0.4,1.8,1,2.4l22.7,22.7c1.5,1.5,3.4,2.3,5.5,2.3c2.1,0,4-0.8,5.5-2.3L57.5,5.9
	C58.8,4.5,58.8,2.4,57.5,1z"/>
</svg>
