<?xml version="1.0" encoding="utf-8"?>
<!-- Generator: Adobe Illustrator 21.0.2, SVG Export Plug-In . SVG Version: 6.00 Build 0)  -->
<svg version="1.1" id="Layer_1" xmlns="http://www.w3.org/2000/svg" xmlns:xlink="http://www.w3.org/1999/xlink" x="0px" y="0px"
	 viewBox="0 0 58.3 58.3" style="enable-background:new 0 0 58.3 58.3;" xml:space="preserve">
<path d="M29.2,0C13.1,0,0,13.1,0,29.2c0,16.1,13.1,29.2,29.2,29.2c16.1,0,29.2-13.1,29.2-29.2C58.3,13.1,45.2,0,29.2,0z M2.5,29.2
	c0-12.8,9.1-23.6,21.2-26.1c-1.9,2.4-4.6,6.2-6.6,11.1c-1.6-0.5-3.1-1.2-4.7-1.9l-1.1,2.3c1.7,0.8,3.3,1.4,4.9,2
	c-1.2,3.4-1.9,7.2-2,11.4H5.7v2.5h8.5c0.2,3.6,0.9,7.3,2.3,11.3c-1.5,0.5-3.1,1.1-4.7,1.8l1,2.3c1.5-0.7,3.1-1.3,4.6-1.8
	c1.6,3.6,3.7,7.4,6.7,11.3C11.8,53,2.5,42.2,2.5,29.2z M27.9,55.8c-0.1,0-0.2,0-0.3,0c-3.5-4.3-6-8.5-7.8-12.4
	c2.8-0.7,5.5-1.1,8.1-1.2V55.8z M27.9,39.7c-2.8,0.1-5.9,0.5-9,1.4c-1.4-3.7-2.1-7.3-2.3-10.6h11.3V39.7z M27.9,27.9H16.5
	c0-4,0.8-7.6,1.9-10.7c3.3,0.9,6.5,1.4,9.5,1.5V27.9z M27.9,16.3c-2.7-0.1-5.6-0.6-8.6-1.4c2.8-6.6,6.8-11,8.1-12.3
	c0.2,0,0.3,0,0.5,0V16.3z M50.3,12.9c3.2,4.2,5.3,9.4,5.5,15H44.2c-0.1-4.2-0.9-8-2-11.3C45.4,15.5,48.2,14.2,50.3,12.9z M48.6,11
	c-2.1,1.2-4.6,2.4-7.3,3.3c-2-5-4.7-8.8-6.7-11.2C40.1,4.2,45,7.1,48.6,11z M30.4,2.5c0.2,0,0.3,0,0.5,0c1.4,1.3,5.4,5.7,8.2,12.4
	c-2.7,0.7-5.6,1.2-8.7,1.3V2.5z M30.4,18.7c3.5-0.1,6.7-0.6,9.6-1.4c1.1,3.2,1.8,6.7,1.8,10.7H30.4V18.7z M30.4,30.4h11.3
	c-0.2,3.3-0.9,6.8-2.3,10.6c-2.7-0.7-5.8-1.2-9-1.3V30.4z M30.4,55.8V42.1c2.9,0.1,5.6,0.5,8.1,1.1c-1.7,4-4.3,8.2-7.8,12.5
	C30.6,55.8,30.5,55.8,30.4,55.8z M34.2,55.3c3-3.9,5.1-7.7,6.7-11.4c2.9,0.9,5.4,2.1,7.7,3.4C44.8,51.4,39.8,54.3,34.2,55.3z
	 M50.3,45.5c-2.2-1.3-5-2.7-8.4-3.8c1.4-4,2.1-7.7,2.3-11.2h11.6C55.5,36.1,53.5,41.3,50.3,45.5z"/>
</svg>
