<?xml version="1.0" encoding="utf-8"?>
<!-- Generator: Adobe Illustrator 25.2.3, SVG Export Plug-In . SVG Version: 6.00 Build 0)  -->
<svg version="1.1" id="Layer_1" xmlns="http://www.w3.org/2000/svg" xmlns:xlink="http://www.w3.org/1999/xlink" x="0px" y="0px"
	 viewBox="0 0 783.9 390.3" style="enable-background:new 0 0 783.9 390.3;" xml:space="preserve">
<style type="text/css">
	.st0{fill:#FF8300;stroke:#FF8300;stroke-width:35;stroke-miterlimit:10;}
</style>
<g id="Layer_2_1_">
	<g id="Arrows">
		<g id="Arrow_4">
			<path class="st0" d="M703.3,199.4H57.7c-5.3,0-9.7-4.3-9.7-9.7c0-5.3,4.3-9.7,9.7-9.7h645.7c5.3,0,9.7,4.3,9.7,9.7
				C713,195.1,708.7,199.4,703.3,199.4L703.3,199.4z"/>
			<path class="st0" d="M567.6,366.3c-5.3,0-9.6-4.4-9.6-9.7c0-2.5,1-4.9,2.7-6.6l152-157.6L555,40.4c-4.1-3.5-4.5-9.6-1.1-13.6
				c3.5-4.1,9.6-4.5,13.6-1.1c0.3,0.3,0.6,0.5,0.8,0.8l164.5,158.6c3.8,3.7,3.9,9.8,0.2,13.6L574.5,363.4
				C572.7,365.3,570.2,366.3,567.6,366.3z"/>
		</g>
	</g>
</g>
</svg>
